<svg width="24" height="24" viewBox="0 0 24 24" fill="none" xmlns="http://www.w3.org/2000/svg">
<path d="M12 24C10.0266 24 8.08363 23.5133 6.34324 22.5831C4.60285 21.6528 3.11874 20.3077 2.02237 18.6668C0.926 17.026 0.251215 15.1401 0.0577866 13.1762C-0.135642 11.2123 0.158256 9.231 0.913447 7.4078C1.66864 5.58461 2.86181 3.9758 4.38728 2.72388C5.91274 1.47196 7.72342 0.615574 9.65891 0.230579C11.5944 -0.154416 13.595 -0.0561357 15.4834 0.516714C17.3718 1.08956 19.0899 2.1193 20.4853 3.51471C20.5782 3.60756 20.6519 3.7178 20.7021 3.83914C20.7524 3.96047 20.7783 4.09052 20.7783 4.22187C20.7784 4.35321 20.7525 4.48327 20.7022 4.60461C20.652 4.72596 20.5783 4.83622 20.4854 4.92909C20.3926 5.02196 20.2823 5.09563 20.161 5.14588C20.0396 5.19613 19.9096 5.22199 19.7782 5.22197C19.6469 5.22195 19.5168 5.19606 19.3955 5.14577C19.2741 5.09549 19.1639 5.02179 19.0711 4.92889C17.4654 3.32355 15.3613 2.31241 13.1047 2.06177C10.8481 1.81112 8.57338 2.33589 6.65463 3.54977C4.73588 4.76366 3.28735 6.59438 2.54727 8.74086C1.80719 10.8873 1.81962 13.2218 2.58252 15.3603C3.34541 17.4987 4.81335 19.3139 6.74491 20.5073C8.67647 21.7007 10.9567 22.2012 13.2105 21.9266C15.4643 21.6519 17.5575 20.6184 19.146 18.9961C20.7344 17.3737 21.7234 15.2591 21.9504 13H12C11.7348 13 11.4804 12.8946 11.2929 12.7071C11.1054 12.5196 11 12.2652 11 12C11 11.7348 11.1054 11.4804 11.2929 11.2929C11.4804 11.1054 11.7348 11 12 11H23C23.1313 11 23.2614 11.0259 23.3827 11.0761C23.504 11.1264 23.6143 11.2 23.7071 11.2929C23.8 11.3857 23.8736 11.496 23.9239 11.6173C23.9741 11.7386 24 11.8687 24 12C23.9964 15.1815 22.731 18.2317 20.4813 20.4813C18.2317 22.731 15.1815 23.9964 12 24V24Z" fill="black"/>
</svg>
